<mxfile host="app.diagrams.net" modified="2021-10-20T04:39:37.388Z" agent="5.0 (Windows NT 10.0; Win64; x64) AppleWebKit/537.36 (KHTML, like Gecko) Chrome/94.0.4606.81 Safari/537.36" etag="p9E6A-wVkv1ZiK8ZolKk" version="15.4.3" type="github">
  <diagram id="kgpKYQtTHZ0yAKxKKP6v" name="Page-1">
    <mxGraphModel dx="1108" dy="482" grid="1" gridSize="10" guides="1" tooltips="1" connect="1" arrows="1" fold="1" page="1" pageScale="1" pageWidth="850" pageHeight="1100" math="0" shadow="0">
      <root>
        <mxCell id="0" />
        <mxCell id="1" parent="0" />
        <mxCell id="3nuBFxr9cyL0pnOWT2aG-1" value="管理员" style="shape=umlLifeline;perimeter=lifelinePerimeter;container=1;collapsible=0;recursiveResize=0;rounded=0;shadow=0;strokeWidth=1;" parent="1" vertex="1">
          <mxGeometry x="120" y="80" width="100" height="380" as="geometry" />
        </mxCell>
        <mxCell id="3nuBFxr9cyL0pnOWT2aG-2" value="" style="points=[];perimeter=orthogonalPerimeter;rounded=0;shadow=0;strokeWidth=1;" parent="3nuBFxr9cyL0pnOWT2aG-1" vertex="1">
          <mxGeometry x="45" y="90" width="10" height="110" as="geometry" />
        </mxCell>
        <mxCell id="I_Vj9m20TvFb2odUwrg8-14" value="" style="points=[];perimeter=orthogonalPerimeter;rounded=0;shadow=0;strokeWidth=1;" vertex="1" parent="3nuBFxr9cyL0pnOWT2aG-1">
          <mxGeometry x="55" y="110" width="10" height="60" as="geometry" />
        </mxCell>
        <mxCell id="I_Vj9m20TvFb2odUwrg8-31" value="" style="points=[];perimeter=orthogonalPerimeter;rounded=0;shadow=0;strokeWidth=1;" vertex="1" parent="3nuBFxr9cyL0pnOWT2aG-1">
          <mxGeometry x="45" y="50" width="10" height="30" as="geometry" />
        </mxCell>
        <mxCell id="3nuBFxr9cyL0pnOWT2aG-5" value="普通用户" style="shape=umlLifeline;perimeter=lifelinePerimeter;container=1;collapsible=0;recursiveResize=0;rounded=0;shadow=0;strokeWidth=1;" parent="1" vertex="1">
          <mxGeometry x="300" y="80" width="100" height="380" as="geometry" />
        </mxCell>
        <mxCell id="I_Vj9m20TvFb2odUwrg8-11" value="" style="points=[];perimeter=orthogonalPerimeter;rounded=0;shadow=0;strokeWidth=1;" vertex="1" parent="3nuBFxr9cyL0pnOWT2aG-5">
          <mxGeometry x="45" y="170" width="10" height="200" as="geometry" />
        </mxCell>
        <mxCell id="I_Vj9m20TvFb2odUwrg8-18" value="" style="points=[];perimeter=orthogonalPerimeter;rounded=0;shadow=0;strokeWidth=1;" vertex="1" parent="3nuBFxr9cyL0pnOWT2aG-5">
          <mxGeometry x="55" y="210" width="10" height="30" as="geometry" />
        </mxCell>
        <mxCell id="I_Vj9m20TvFb2odUwrg8-25" value="" style="points=[];perimeter=orthogonalPerimeter;rounded=0;shadow=0;strokeWidth=1;" vertex="1" parent="3nuBFxr9cyL0pnOWT2aG-5">
          <mxGeometry x="55" y="250" width="10" height="30" as="geometry" />
        </mxCell>
        <mxCell id="I_Vj9m20TvFb2odUwrg8-26" value="文件下载" style="verticalAlign=bottom;endArrow=block;shadow=0;strokeWidth=1;exitX=1;exitY=0.4;exitDx=0;exitDy=0;exitPerimeter=0;entryX=0.1;entryY=0.638;entryDx=0;entryDy=0;entryPerimeter=0;" edge="1" parent="3nuBFxr9cyL0pnOWT2aG-5" source="I_Vj9m20TvFb2odUwrg8-25">
          <mxGeometry relative="1" as="geometry">
            <mxPoint x="66" y="243" as="sourcePoint" />
            <mxPoint x="236" y="262.08000000000004" as="targetPoint" />
          </mxGeometry>
        </mxCell>
        <mxCell id="I_Vj9m20TvFb2odUwrg8-27" value="" style="points=[];perimeter=orthogonalPerimeter;rounded=0;shadow=0;strokeWidth=1;" vertex="1" parent="3nuBFxr9cyL0pnOWT2aG-5">
          <mxGeometry x="55" y="290" width="10" height="30" as="geometry" />
        </mxCell>
        <mxCell id="I_Vj9m20TvFb2odUwrg8-29" value="" style="points=[];perimeter=orthogonalPerimeter;rounded=0;shadow=0;strokeWidth=1;" vertex="1" parent="3nuBFxr9cyL0pnOWT2aG-5">
          <mxGeometry x="55" y="330" width="10" height="30" as="geometry" />
        </mxCell>
        <mxCell id="I_Vj9m20TvFb2odUwrg8-30" value="文件权限控制" style="verticalAlign=bottom;endArrow=block;shadow=0;strokeWidth=1;exitX=1;exitY=0.4;exitDx=0;exitDy=0;exitPerimeter=0;entryX=0.1;entryY=0.638;entryDx=0;entryDy=0;entryPerimeter=0;" edge="1" parent="3nuBFxr9cyL0pnOWT2aG-5" source="I_Vj9m20TvFb2odUwrg8-29">
          <mxGeometry relative="1" as="geometry">
            <mxPoint x="66" y="323" as="sourcePoint" />
            <mxPoint x="236" y="342.08000000000004" as="targetPoint" />
          </mxGeometry>
        </mxCell>
        <mxCell id="I_Vj9m20TvFb2odUwrg8-34" value="" style="points=[];perimeter=orthogonalPerimeter;rounded=0;shadow=0;strokeWidth=1;" vertex="1" parent="3nuBFxr9cyL0pnOWT2aG-5">
          <mxGeometry x="45" y="130" width="10" height="30" as="geometry" />
        </mxCell>
        <mxCell id="3nuBFxr9cyL0pnOWT2aG-8" value="登录" style="verticalAlign=bottom;endArrow=block;entryX=0.1;entryY=0.069;shadow=0;strokeWidth=1;entryDx=0;entryDy=0;entryPerimeter=0;" parent="1" source="3nuBFxr9cyL0pnOWT2aG-2" edge="1">
          <mxGeometry relative="1" as="geometry">
            <mxPoint x="275" y="180" as="sourcePoint" />
            <mxPoint x="536" y="181.03999999999996" as="targetPoint" />
          </mxGeometry>
        </mxCell>
        <mxCell id="I_Vj9m20TvFb2odUwrg8-2" value="系统" style="shape=umlLifeline;perimeter=lifelinePerimeter;container=1;collapsible=0;recursiveResize=0;rounded=0;shadow=0;strokeWidth=1;" vertex="1" parent="1">
          <mxGeometry x="490" y="80" width="100" height="380" as="geometry" />
        </mxCell>
        <mxCell id="I_Vj9m20TvFb2odUwrg8-12" value="" style="points=[];perimeter=orthogonalPerimeter;rounded=0;shadow=0;strokeWidth=1;" vertex="1" parent="I_Vj9m20TvFb2odUwrg8-2">
          <mxGeometry x="45" y="90" width="10" height="70" as="geometry" />
        </mxCell>
        <mxCell id="I_Vj9m20TvFb2odUwrg8-10" value="" style="points=[];perimeter=orthogonalPerimeter;rounded=0;shadow=0;strokeWidth=1;" vertex="1" parent="I_Vj9m20TvFb2odUwrg8-2">
          <mxGeometry x="45" y="180" width="10" height="190" as="geometry" />
        </mxCell>
        <mxCell id="I_Vj9m20TvFb2odUwrg8-32" value="" style="points=[];perimeter=orthogonalPerimeter;rounded=0;shadow=0;strokeWidth=1;" vertex="1" parent="I_Vj9m20TvFb2odUwrg8-2">
          <mxGeometry x="45" y="50" width="10" height="30" as="geometry" />
        </mxCell>
        <mxCell id="I_Vj9m20TvFb2odUwrg8-13" value="登录" style="verticalAlign=bottom;endArrow=block;shadow=0;strokeWidth=1;exitX=1.1;exitY=0.1;exitDx=0;exitDy=0;exitPerimeter=0;entryX=0.2;entryY=0.053;entryDx=0;entryDy=0;entryPerimeter=0;" edge="1" parent="1" source="I_Vj9m20TvFb2odUwrg8-11" target="I_Vj9m20TvFb2odUwrg8-10">
          <mxGeometry relative="1" as="geometry">
            <mxPoint x="185" y="221.03999999999996" as="sourcePoint" />
            <mxPoint x="534" y="273" as="targetPoint" />
          </mxGeometry>
        </mxCell>
        <mxCell id="I_Vj9m20TvFb2odUwrg8-15" value="用户权限控制" style="verticalAlign=bottom;endArrow=block;shadow=0;strokeWidth=1;entryX=0;entryY=0.175;entryDx=0;entryDy=0;entryPerimeter=0;exitX=0.9;exitY=0.133;exitDx=0;exitDy=0;exitPerimeter=0;" edge="1" parent="1" source="I_Vj9m20TvFb2odUwrg8-14">
          <mxGeometry relative="1" as="geometry">
            <mxPoint x="190" y="198" as="sourcePoint" />
            <mxPoint x="535" y="198" as="targetPoint" />
            <Array as="points" />
          </mxGeometry>
        </mxCell>
        <mxCell id="I_Vj9m20TvFb2odUwrg8-19" value="文件上传" style="verticalAlign=bottom;endArrow=block;shadow=0;strokeWidth=1;exitX=1;exitY=0.4;exitDx=0;exitDy=0;exitPerimeter=0;" edge="1" parent="1" source="I_Vj9m20TvFb2odUwrg8-18">
          <mxGeometry relative="1" as="geometry">
            <mxPoint x="366" y="283" as="sourcePoint" />
            <mxPoint x="536" y="302" as="targetPoint" />
          </mxGeometry>
        </mxCell>
        <mxCell id="I_Vj9m20TvFb2odUwrg8-33" value="注册" style="verticalAlign=bottom;endArrow=block;shadow=0;strokeWidth=1;exitX=0.9;exitY=0.5;exitDx=0;exitDy=0;exitPerimeter=0;entryX=0.1;entryY=0.5;entryDx=0;entryDy=0;entryPerimeter=0;" edge="1" parent="1" source="I_Vj9m20TvFb2odUwrg8-31" target="I_Vj9m20TvFb2odUwrg8-32">
          <mxGeometry relative="1" as="geometry">
            <mxPoint x="175" y="154.49999999999997" as="sourcePoint" />
            <mxPoint x="520" y="145" as="targetPoint" />
          </mxGeometry>
        </mxCell>
        <mxCell id="I_Vj9m20TvFb2odUwrg8-35" value="权限控制结果" style="verticalAlign=bottom;endArrow=block;shadow=0;strokeWidth=1;entryX=1;entryY=0.333;entryDx=0;entryDy=0;entryPerimeter=0;exitX=0;exitY=0.714;exitDx=0;exitDy=0;exitPerimeter=0;" edge="1" parent="1" source="I_Vj9m20TvFb2odUwrg8-12" target="I_Vj9m20TvFb2odUwrg8-34">
          <mxGeometry relative="1" as="geometry">
            <mxPoint x="540" y="220" as="sourcePoint" />
            <mxPoint x="360" y="220" as="targetPoint" />
            <Array as="points">
              <mxPoint x="450" y="220" />
              <mxPoint x="400" y="220" />
            </Array>
          </mxGeometry>
        </mxCell>
        <mxCell id="I_Vj9m20TvFb2odUwrg8-28" value="文件在线预览" style="verticalAlign=bottom;endArrow=block;shadow=0;strokeWidth=1;exitX=1;exitY=0.4;exitDx=0;exitDy=0;exitPerimeter=0;" edge="1" parent="1" source="I_Vj9m20TvFb2odUwrg8-27" target="I_Vj9m20TvFb2odUwrg8-10">
          <mxGeometry relative="1" as="geometry">
            <mxPoint x="366" y="363" as="sourcePoint" />
            <mxPoint x="536" y="382.08000000000004" as="targetPoint" />
          </mxGeometry>
        </mxCell>
        <mxCell id="I_Vj9m20TvFb2odUwrg8-37" value="用户" style="shape=umlLifeline;perimeter=lifelinePerimeter;container=1;collapsible=0;recursiveResize=0;rounded=0;shadow=0;strokeWidth=1;" vertex="1" parent="1">
          <mxGeometry x="90" y="510" width="100" height="290" as="geometry" />
        </mxCell>
        <mxCell id="I_Vj9m20TvFb2odUwrg8-101" value="" style="points=[];perimeter=orthogonalPerimeter;rounded=0;shadow=0;strokeWidth=1;" vertex="1" parent="I_Vj9m20TvFb2odUwrg8-37">
          <mxGeometry x="45" y="70" width="10" height="200" as="geometry" />
        </mxCell>
        <mxCell id="I_Vj9m20TvFb2odUwrg8-41" value="文件" style="shape=umlLifeline;perimeter=lifelinePerimeter;container=1;collapsible=0;recursiveResize=0;rounded=0;shadow=0;strokeWidth=1;" vertex="1" parent="1">
          <mxGeometry x="270" y="510" width="100" height="290" as="geometry" />
        </mxCell>
        <mxCell id="I_Vj9m20TvFb2odUwrg8-74" value="" style="points=[];perimeter=orthogonalPerimeter;rounded=0;shadow=0;strokeWidth=1;" vertex="1" parent="I_Vj9m20TvFb2odUwrg8-41">
          <mxGeometry x="35" y="100" width="10" height="30" as="geometry" />
        </mxCell>
        <mxCell id="I_Vj9m20TvFb2odUwrg8-102" value="" style="points=[];perimeter=orthogonalPerimeter;rounded=0;shadow=0;strokeWidth=1;" vertex="1" parent="I_Vj9m20TvFb2odUwrg8-41">
          <mxGeometry x="45" y="70" width="10" height="160" as="geometry" />
        </mxCell>
        <mxCell id="I_Vj9m20TvFb2odUwrg8-103" value="获取在线文件" style="verticalAlign=bottom;endArrow=block;shadow=0;strokeWidth=1;exitX=1.2;exitY=0.562;exitDx=0;exitDy=0;exitPerimeter=0;entryX=0.1;entryY=0.333;entryDx=0;entryDy=0;entryPerimeter=0;" edge="1" parent="I_Vj9m20TvFb2odUwrg8-41" target="I_Vj9m20TvFb2odUwrg8-100">
          <mxGeometry relative="1" as="geometry">
            <mxPoint x="55" y="220.02999999999997" as="sourcePoint" />
            <mxPoint x="233" y="220" as="targetPoint" />
          </mxGeometry>
        </mxCell>
        <mxCell id="I_Vj9m20TvFb2odUwrg8-51" value="部门" style="shape=umlLifeline;perimeter=lifelinePerimeter;container=1;collapsible=0;recursiveResize=0;rounded=0;shadow=0;strokeWidth=1;" vertex="1" parent="1">
          <mxGeometry x="460" y="510" width="100" height="290" as="geometry" />
        </mxCell>
        <mxCell id="I_Vj9m20TvFb2odUwrg8-52" value="" style="points=[];perimeter=orthogonalPerimeter;rounded=0;shadow=0;strokeWidth=1;" vertex="1" parent="I_Vj9m20TvFb2odUwrg8-51">
          <mxGeometry x="45" y="80" width="10" height="110" as="geometry" />
        </mxCell>
        <mxCell id="I_Vj9m20TvFb2odUwrg8-58" value="下载请求" style="verticalAlign=bottom;endArrow=block;shadow=0;strokeWidth=1;exitX=1.1;exitY=0.108;exitDx=0;exitDy=0;exitPerimeter=0;" edge="1" parent="1">
          <mxGeometry relative="1" as="geometry">
            <mxPoint x="146" y="594.04" as="sourcePoint" />
            <mxPoint x="315" y="594.04" as="targetPoint" />
          </mxGeometry>
        </mxCell>
        <mxCell id="I_Vj9m20TvFb2odUwrg8-62" value="部门合法" style="verticalAlign=bottom;endArrow=block;shadow=0;strokeWidth=1;exitX=-0.1;exitY=0.775;exitDx=0;exitDy=0;exitPerimeter=0;" edge="1" parent="1" source="I_Vj9m20TvFb2odUwrg8-52">
          <mxGeometry relative="1" as="geometry">
            <mxPoint x="331" y="730" as="sourcePoint" />
            <mxPoint x="325" y="675" as="targetPoint" />
            <Array as="points">
              <mxPoint x="380" y="675" />
            </Array>
          </mxGeometry>
        </mxCell>
        <mxCell id="I_Vj9m20TvFb2odUwrg8-61" value="校验用户权限" style="verticalAlign=bottom;endArrow=block;shadow=0;strokeWidth=1;entryX=0;entryY=0.573;entryDx=0;entryDy=0;entryPerimeter=0;exitX=1.2;exitY=0.562;exitDx=0;exitDy=0;exitPerimeter=0;" edge="1" parent="1" target="I_Vj9m20TvFb2odUwrg8-52">
          <mxGeometry relative="1" as="geometry">
            <mxPoint x="327" y="653.06" as="sourcePoint" />
            <mxPoint x="510" y="600" as="targetPoint" />
          </mxGeometry>
        </mxCell>
        <mxCell id="I_Vj9m20TvFb2odUwrg8-75" value="用户登录状态" style="verticalAlign=bottom;endArrow=block;shadow=0;strokeWidth=1;exitX=0.1;exitY=0.1;exitDx=0;exitDy=0;exitPerimeter=0;entryX=1.1;entryY=0.254;entryDx=0;entryDy=0;entryPerimeter=0;" edge="1" parent="1" source="I_Vj9m20TvFb2odUwrg8-74">
          <mxGeometry relative="1" as="geometry">
            <mxPoint x="310" y="620" as="sourcePoint" />
            <mxPoint x="146" y="613.02" as="targetPoint" />
            <Array as="points" />
          </mxGeometry>
        </mxCell>
        <mxCell id="I_Vj9m20TvFb2odUwrg8-76" value="用户已登录" style="verticalAlign=bottom;endArrow=block;shadow=0;strokeWidth=1;entryX=0;entryY=0.8;entryDx=0;entryDy=0;entryPerimeter=0;exitX=1.1;exitY=0.415;exitDx=0;exitDy=0;exitPerimeter=0;" edge="1" parent="1" target="I_Vj9m20TvFb2odUwrg8-74">
          <mxGeometry relative="1" as="geometry">
            <mxPoint x="146" y="633.95" as="sourcePoint" />
            <mxPoint x="300" y="635" as="targetPoint" />
          </mxGeometry>
        </mxCell>
        <mxCell id="I_Vj9m20TvFb2odUwrg8-77" value="用户" style="shape=umlLifeline;perimeter=lifelinePerimeter;container=1;collapsible=0;recursiveResize=0;rounded=0;shadow=0;strokeWidth=1;" vertex="1" parent="1">
          <mxGeometry x="80" y="870" width="100" height="290" as="geometry" />
        </mxCell>
        <mxCell id="I_Vj9m20TvFb2odUwrg8-93" value="" style="points=[];perimeter=orthogonalPerimeter;rounded=0;shadow=0;strokeWidth=1;" vertex="1" parent="I_Vj9m20TvFb2odUwrg8-77">
          <mxGeometry x="45" y="70" width="10" height="200" as="geometry" />
        </mxCell>
        <mxCell id="I_Vj9m20TvFb2odUwrg8-79" value="文件" style="shape=umlLifeline;perimeter=lifelinePerimeter;container=1;collapsible=0;recursiveResize=0;rounded=0;shadow=0;strokeWidth=1;" vertex="1" parent="1">
          <mxGeometry x="260" y="870" width="100" height="290" as="geometry" />
        </mxCell>
        <mxCell id="I_Vj9m20TvFb2odUwrg8-81" value="" style="points=[];perimeter=orthogonalPerimeter;rounded=0;shadow=0;strokeWidth=1;" vertex="1" parent="I_Vj9m20TvFb2odUwrg8-79">
          <mxGeometry x="35" y="100" width="10" height="30" as="geometry" />
        </mxCell>
        <mxCell id="I_Vj9m20TvFb2odUwrg8-94" value="用户" style="shape=umlLifeline;perimeter=lifelinePerimeter;container=1;collapsible=0;recursiveResize=0;rounded=0;shadow=0;strokeWidth=1;" vertex="1" parent="I_Vj9m20TvFb2odUwrg8-79">
          <mxGeometry width="100" height="290" as="geometry" />
        </mxCell>
        <mxCell id="I_Vj9m20TvFb2odUwrg8-95" value="" style="points=[];perimeter=orthogonalPerimeter;rounded=0;shadow=0;strokeWidth=1;" vertex="1" parent="I_Vj9m20TvFb2odUwrg8-94">
          <mxGeometry x="45" y="70" width="10" height="200" as="geometry" />
        </mxCell>
        <mxCell id="I_Vj9m20TvFb2odUwrg8-82" value="部门" style="shape=umlLifeline;perimeter=lifelinePerimeter;container=1;collapsible=0;recursiveResize=0;rounded=0;shadow=0;strokeWidth=1;" vertex="1" parent="1">
          <mxGeometry x="430" y="870" width="100" height="290" as="geometry" />
        </mxCell>
        <mxCell id="I_Vj9m20TvFb2odUwrg8-83" value="" style="points=[];perimeter=orthogonalPerimeter;rounded=0;shadow=0;strokeWidth=1;" vertex="1" parent="I_Vj9m20TvFb2odUwrg8-82">
          <mxGeometry x="50" y="190" width="6" height="40" as="geometry" />
        </mxCell>
        <mxCell id="I_Vj9m20TvFb2odUwrg8-84" value="上传请求" style="verticalAlign=bottom;endArrow=block;shadow=0;strokeWidth=1;exitX=1.1;exitY=0.108;exitDx=0;exitDy=0;exitPerimeter=0;" edge="1" parent="1">
          <mxGeometry relative="1" as="geometry">
            <mxPoint x="136" y="954.04" as="sourcePoint" />
            <mxPoint x="305" y="954.04" as="targetPoint" />
          </mxGeometry>
        </mxCell>
        <mxCell id="I_Vj9m20TvFb2odUwrg8-85" value="部门code" style="verticalAlign=bottom;endArrow=block;shadow=0;strokeWidth=1;exitX=0;exitY=0.825;exitDx=0;exitDy=0;exitPerimeter=0;entryX=0.9;entryY=0.724;entryDx=0;entryDy=0;entryPerimeter=0;" edge="1" parent="1" source="I_Vj9m20TvFb2odUwrg8-83">
          <mxGeometry relative="1" as="geometry">
            <mxPoint x="322" y="1120" as="sourcePoint" />
            <mxPoint x="315" y="1093.08" as="targetPoint" />
            <Array as="points" />
          </mxGeometry>
        </mxCell>
        <mxCell id="I_Vj9m20TvFb2odUwrg8-87" value="获取用户所属部门" style="verticalAlign=bottom;endArrow=block;shadow=0;strokeWidth=1;exitX=1;exitY=0.588;exitDx=0;exitDy=0;exitPerimeter=0;" edge="1" parent="1" target="I_Vj9m20TvFb2odUwrg8-83">
          <mxGeometry relative="1" as="geometry">
            <mxPoint x="316" y="1069.96" as="sourcePoint" />
            <mxPoint x="501" y="990" as="targetPoint" />
            <Array as="points">
              <mxPoint x="401" y="1070" />
            </Array>
          </mxGeometry>
        </mxCell>
        <mxCell id="I_Vj9m20TvFb2odUwrg8-88" value="用户登录状态" style="verticalAlign=bottom;endArrow=block;shadow=0;strokeWidth=1;exitX=0.1;exitY=0.1;exitDx=0;exitDy=0;exitPerimeter=0;entryX=1.1;entryY=0.254;entryDx=0;entryDy=0;entryPerimeter=0;" edge="1" parent="1" source="I_Vj9m20TvFb2odUwrg8-81">
          <mxGeometry relative="1" as="geometry">
            <mxPoint x="300" y="980" as="sourcePoint" />
            <mxPoint x="136" y="973.02" as="targetPoint" />
            <Array as="points" />
          </mxGeometry>
        </mxCell>
        <mxCell id="I_Vj9m20TvFb2odUwrg8-89" value="用户已登录" style="verticalAlign=bottom;endArrow=block;shadow=0;strokeWidth=1;entryX=0;entryY=0.8;entryDx=0;entryDy=0;entryPerimeter=0;exitX=1.1;exitY=0.415;exitDx=0;exitDy=0;exitPerimeter=0;" edge="1" parent="1" target="I_Vj9m20TvFb2odUwrg8-81">
          <mxGeometry relative="1" as="geometry">
            <mxPoint x="136" y="993.95" as="sourcePoint" />
            <mxPoint x="290" y="995" as="targetPoint" />
          </mxGeometry>
        </mxCell>
        <mxCell id="I_Vj9m20TvFb2odUwrg8-91" value="待上传文件" style="verticalAlign=bottom;endArrow=block;shadow=0;strokeWidth=1;exitX=1.2;exitY=0.846;exitDx=0;exitDy=0;exitPerimeter=0;entryX=0.2;entryY=0.647;entryDx=0;entryDy=0;entryPerimeter=0;" edge="1" parent="1">
          <mxGeometry relative="1" as="geometry">
            <mxPoint x="137" y="1049.98" as="sourcePoint" />
            <mxPoint x="307" y="1049.99" as="targetPoint" />
            <Array as="points">
              <mxPoint x="170" y="1050" />
              <mxPoint x="215" y="1050.04" />
            </Array>
          </mxGeometry>
        </mxCell>
        <mxCell id="I_Vj9m20TvFb2odUwrg8-92" value="获取待上传文件" style="verticalAlign=bottom;endArrow=block;shadow=0;strokeWidth=1;exitX=0;exitY=0.5;exitDx=0;exitDy=0;exitPerimeter=0;entryX=1;entryY=0.654;entryDx=0;entryDy=0;entryPerimeter=0;" edge="1" parent="1">
          <mxGeometry relative="1" as="geometry">
            <mxPoint x="305" y="1025" as="sourcePoint" />
            <mxPoint x="135" y="1025.02" as="targetPoint" />
            <Array as="points" />
          </mxGeometry>
        </mxCell>
        <mxCell id="I_Vj9m20TvFb2odUwrg8-96" value="服务器" style="shape=umlLifeline;perimeter=lifelinePerimeter;container=1;collapsible=0;recursiveResize=0;rounded=0;shadow=0;strokeWidth=1;" vertex="1" parent="1">
          <mxGeometry x="610" y="870" width="100" height="290" as="geometry" />
        </mxCell>
        <mxCell id="I_Vj9m20TvFb2odUwrg8-97" value="" style="points=[];perimeter=orthogonalPerimeter;rounded=0;shadow=0;strokeWidth=1;" vertex="1" parent="I_Vj9m20TvFb2odUwrg8-96">
          <mxGeometry x="45" y="230" width="10" height="50" as="geometry" />
        </mxCell>
        <mxCell id="I_Vj9m20TvFb2odUwrg8-98" value="上传文件" style="verticalAlign=bottom;endArrow=block;shadow=0;strokeWidth=1;exitX=1.1;exitY=0.95;exitDx=0;exitDy=0;exitPerimeter=0;entryX=0.1;entryY=0.6;entryDx=0;entryDy=0;entryPerimeter=0;" edge="1" parent="1" source="I_Vj9m20TvFb2odUwrg8-95" target="I_Vj9m20TvFb2odUwrg8-97">
          <mxGeometry relative="1" as="geometry">
            <mxPoint x="310" y="1130" as="sourcePoint" />
            <mxPoint x="474" y="1130.04" as="targetPoint" />
            <Array as="points">
              <mxPoint x="395" y="1130.04" />
            </Array>
          </mxGeometry>
        </mxCell>
        <mxCell id="I_Vj9m20TvFb2odUwrg8-99" value="服务器" style="shape=umlLifeline;perimeter=lifelinePerimeter;container=1;collapsible=0;recursiveResize=0;rounded=0;shadow=0;strokeWidth=1;" vertex="1" parent="1">
          <mxGeometry x="650" y="510" width="100" height="290" as="geometry" />
        </mxCell>
        <mxCell id="I_Vj9m20TvFb2odUwrg8-100" value="" style="points=[];perimeter=orthogonalPerimeter;rounded=0;shadow=0;strokeWidth=1;" vertex="1" parent="I_Vj9m20TvFb2odUwrg8-99">
          <mxGeometry x="45" y="200" width="10" height="60" as="geometry" />
        </mxCell>
        <mxCell id="I_Vj9m20TvFb2odUwrg8-104" value="下载文件" style="verticalAlign=bottom;endArrow=block;shadow=0;strokeWidth=1;exitX=-0.1;exitY=0.833;exitDx=0;exitDy=0;exitPerimeter=0;entryX=1;entryY=0.9;entryDx=0;entryDy=0;entryPerimeter=0;" edge="1" parent="1" source="I_Vj9m20TvFb2odUwrg8-100" target="I_Vj9m20TvFb2odUwrg8-101">
          <mxGeometry relative="1" as="geometry">
            <mxPoint x="689" y="760.25" as="sourcePoint" />
            <mxPoint x="510" y="760" as="targetPoint" />
            <Array as="points">
              <mxPoint x="565" y="760" />
            </Array>
          </mxGeometry>
        </mxCell>
      </root>
    </mxGraphModel>
  </diagram>
</mxfile>
